<?xml version="1.0" encoding="UTF-8"?> <svg xmlns="http://www.w3.org/2000/svg" width="475" height="475" fill="none" viewBox="0 0 475 475"><g clip-path="url(#a)"><path fill="#F5F5F4" d="m105.305 104.222-55.04 132.743 54.92 132.862 132.743 55.04 132.862-54.92 55.04-132.742-54.92-132.863-132.742-55.04-132.863 54.92Z"></path><path fill="url(#b)" d="m238.168 52.54 130.464 54.081 53.96 130.464-54.08 130.464-130.464 53.96-130.465-54.08-53.96-130.464 54.08-130.464 130.465-53.96Zm0-3.237-132.863 54.919-55.04 132.743 54.92 132.742 132.743 55.04 132.742-54.92 55.04-132.742-54.8-132.743-132.742-55.04Z"></path><path stroke="#868788" stroke-miterlimit="10" stroke-width="1.4" d="M369.358 368.388 238.055 237.205h185.623M237.934 422.708l.12-185.503L106.75 368.388M52.43 236.965l185.623.24L106.75 105.781M238.175 51.461l-.12 185.744 131.303-131.423" opacity=".3"></path><path fill="#F5F5F4" d="m150.406 149.309-36.453 87.776 36.333 87.655 87.776 36.454 87.656-36.334 36.453-87.775-36.334-87.656-87.775-36.453-87.656 36.333Z"></path><path fill="url(#c)" d="m238.062 115.134 86.217 35.734 35.613 86.217-35.733 86.216-86.097 35.734-86.217-35.734-35.733-86.216 35.733-86.217 86.217-35.734Zm0-2.158-87.776 36.333-36.333 87.776 36.333 87.775 87.776 36.334 87.775-36.334 36.334-87.775-36.334-87.776-87.775-36.333Z"></path><path stroke="#78AA43" stroke-linecap="round" stroke-miterlimit="10" stroke-width="5" d="M369.733 105.902 238.43 51.462M237.71 422.709l-131.304-54.44M237.703 422.829l131.304-54.32M107.125 105.662l131.304-54.32M52.32 236.726l54.32 131.303M369.492 106.142l54.32 131.303M106.877 105.422l-54.44 131.303M423.682 237.445l-54.44 131.304"></path><path fill="#FCFCFC" d="M326.402 64.514c17.265-2.757 29.026-18.988 26.269-36.253-2.758-17.265-18.989-29.026-36.254-26.269-17.265 2.757-29.026 18.988-26.268 36.253 2.757 17.265 18.988 29.026 36.253 26.27Z"></path><path stroke="#78AA43" stroke-miterlimit="10" d="M326.402 64.514c17.265-2.757 29.026-18.988 26.269-36.253-2.758-17.265-18.989-29.026-36.254-26.269-17.265 2.757-29.026 18.988-26.268 36.253 2.757 17.265 18.988 29.026 36.253 26.27Z"></path><path fill="#fff" d="M463.709 176.809c12.868-11.837 13.705-31.863 1.868-44.731-11.836-12.868-31.863-13.704-44.731-1.868-12.868 11.836-13.704 31.863-1.868 44.731 11.837 12.868 31.864 13.704 44.731 1.868Z"></path><path stroke="#78AA43" stroke-miterlimit="10" d="M463.709 176.809c12.868-11.837 13.705-31.863 1.868-44.731-11.836-12.868-31.863-13.704-44.731-1.868-12.868 11.836-13.704 31.863-1.868 44.731 11.837 12.868 31.864 13.704 44.731 1.868Z"></path><g fill="#121212" clip-path="url(#d)"><path d="M443.615 153.703a.603.603 0 0 0-.216-.007 1.431 1.431 0 0 1-1.265-1.419.63.63 0 1 0-1.259 0 2.692 2.692 0 0 0 1.98 2.592v.63a.63.63 0 0 0 1.259 0v-.592a2.686 2.686 0 0 0-.551-5.318 1.43 1.43 0 1 1 1.429-1.429.629.629 0 1 0 1.259 0 2.692 2.692 0 0 0-2.137-2.631v-.573a.63.63 0 0 0-1.259 0v.611a2.688 2.688 0 0 0 .708 5.281 1.427 1.427 0 0 1 .052 2.855Z"></path><path d="M434.438 150.267a9.127 9.127 0 1 0 9.127-9.127 9.136 9.136 0 0 0-9.127 9.127Zm9.127-7.869a7.869 7.869 0 1 1-7.869 7.869 7.878 7.878 0 0 1 7.869-7.869Z"></path><path d="m455.792 160.945-4.931 2.33a4.016 4.016 0 0 0-3.423-2.113l-4.552-.125a4.792 4.792 0 0 1-2.068-.534l-.464-.24a8.168 8.168 0 0 0-7.566.008l.029-1.049a.63.63 0 0 0-.612-.647l-4.991-.137a.63.63 0 0 0-.647.612l-.301 10.952a.63.63 0 0 0 .612.647l4.991.137h.017c.341 0 .62-.271.629-.612l.015-.524 1.296-.694a2.225 2.225 0 0 1 1.66-.182l7.743 2.173a8.32 8.32 0 0 0 1.743.186c1.211 0 2.407-.26 3.508-.766a.496.496 0 0 0 .078-.043l11.226-7.261a.631.631 0 0 0 .207-.839 3.18 3.18 0 0 0-4.199-1.279Zm-28.25 8.463.266-9.695 3.733.103-.267 9.695-3.732-.103Zm20.371-.165a7.139 7.139 0 0 1-4.364.487l-7.722-2.167a3.482 3.482 0 0 0-2.595.283l-.662.355.177-6.445a6.918 6.918 0 0 1 7.029-.375l.463.24a6.084 6.084 0 0 0 2.613.675l4.552.125a2.76 2.76 0 0 1 2.623 2.2l-6.78-.188a.63.63 0 0 0-.034 1.259l7.482.206h.017a.63.63 0 0 0 .629-.612 3.99 3.99 0 0 0-.061-.817l5.057-2.389a1.924 1.924 0 0 1 2.19.297l-10.614 6.866ZM444.196 139.37v-5.979a.63.63 0 1 0-1.258 0v5.979a.628.628 0 1 0 1.258 0ZM448.915 139.37v-2.832a.63.63 0 1 0-1.259 0v2.832a.63.63 0 0 0 1.259 0ZM439.47 139.37v-2.832a.63.63 0 1 0-1.259 0v2.832a.629.629 0 1 0 1.259 0Z"></path></g><path fill="#FCFCFC" d="M463.497 343.81c12.363-12.363 12.363-32.407 0-44.769-12.362-12.363-32.406-12.363-44.769 0-12.362 12.362-12.362 32.406 0 44.769 12.363 12.362 32.407 12.362 44.769 0Z"></path><path stroke="#78AA43" stroke-miterlimit="10" d="M463.497 343.81c12.363-12.363 12.363-32.407 0-44.769-12.362-12.363-32.406-12.363-44.769 0-12.362 12.362-12.362 32.406 0 44.769 12.363 12.362 32.407 12.362 44.769 0Z"></path><path fill="#000" d="M429.994 312.916a.411.411 0 0 1 .821 0 .411.411 0 0 1-.821 0Zm1.84.41a.412.412 0 0 0 .411-.41.411.411 0 1 0-.411.41Zm1.43 0a.412.412 0 0 0 .411-.41.412.412 0 0 0-.411-.411.412.412 0 0 0-.41.411c0 .225.185.41.41.41Zm3.025 2.402a.41.41 0 0 0-.41.41v13.948a.41.41 0 1 0 .82 0v-13.948a.41.41 0 0 0-.41-.41Zm-2.275.642h-3.61a.41.41 0 0 0 0 .821h3.61a.41.41 0 0 0 0-.821Zm0 3.618h-3.61a.41.41 0 1 0 0 .82h3.61a.41.41 0 1 0 0-.82Zm0 3.617h-3.61a.41.41 0 0 0 0 .821h3.61a.41.41 0 0 0 0-.821Zm0 3.619h-3.61a.41.41 0 0 0 0 .821h3.61a.41.41 0 0 0 0-.821Zm22.767 1.278v1.571a.41.41 0 0 1-.324.401l-.763.163-.22.53.424.654a.41.41 0 0 1-.054.513l-1.111 1.111a.41.41 0 0 1-.513.055l-.655-.425-.53.219-.163.764a.41.41 0 0 1-.401.325H450.9a.41.41 0 0 1-.401-.325l-.163-.764-.53-.219-.654.425a.412.412 0 0 1-.514-.055l-1.111-1.111a.406.406 0 0 1-.118-.285H429.25a1.532 1.532 0 0 1-1.531-1.529v-18.151c0-.844.687-1.531 1.531-1.531h23.668c.844 0 1.531.687 1.531 1.531v12.641a.41.41 0 0 1 .284.119l1.111 1.111a.41.41 0 0 1 .054.513l-.424.655.22.53.763.162a.411.411 0 0 1 .324.402Zm-28.242-16.133v1.804h25.09v-1.804a.712.712 0 0 0-.711-.711H429.25a.712.712 0 0 0-.711.711Zm.711 18.86h18.608l.041-.063-.22-.529-.763-.163a.41.41 0 0 1-.324-.401v-1.571c0-.194.135-.361.324-.402l.763-.162.22-.53-.426-.654a.411.411 0 0 1 .054-.514l1.112-1.111a.41.41 0 0 1 .513-.054l.654.424.53-.219.163-.764a.41.41 0 0 1 .401-.324h1.571a.41.41 0 0 1 .401.324l.163.764.53.219.064-.041v-10.465h-25.09v15.527a.71.71 0 0 0 .711.709Zm26.711-2.396-.649-.138a.409.409 0 0 1-.293-.244l-.385-.928a.412.412 0 0 1 .034-.381l.361-.557-.642-.641-.557.361a.408.408 0 0 1-.379.034l-.929-.383a.41.41 0 0 1-.244-.294l-.139-.65h-.907l-.138.65a.412.412 0 0 1-.245.294l-.928.383a.41.41 0 0 1-.38-.034l-.557-.361-.642.641.362.557a.41.41 0 0 1 .035.381l-.385.928a.409.409 0 0 1-.293.244l-.649.138v.908l.649.138c.132.028.241.12.293.244l.385.929a.408.408 0 0 1-.035.38l-.362.557.642.642.557-.361a.407.407 0 0 1 .38-.035l.928.384a.41.41 0 0 1 .245.293l.138.65h.907l.139-.65a.407.407 0 0 1 .244-.293l.929-.384a.406.406 0 0 1 .379.035l.557.361.642-.642-.361-.557a.41.41 0 0 1-.034-.38l.385-.929a.411.411 0 0 1 .293-.244l.649-.138v-.908Zm-1.856.454a2.422 2.422 0 0 1-2.419 2.42 2.422 2.422 0 0 1-2.42-2.42 2.423 2.423 0 0 1 2.42-2.42 2.422 2.422 0 0 1 2.419 2.42Zm-.82 0a1.6 1.6 0 0 0-3.199 0c0 .882.718 1.6 1.6 1.6.882 0 1.599-.718 1.599-1.6Z"></path><path fill="#FCFCFC" d="M338.047 468.714c14.756-9.378 19.116-28.943 9.737-43.699-9.378-14.756-28.942-19.116-43.699-9.737-14.756 9.378-19.115 28.942-9.737 43.699 9.378 14.756 28.943 19.115 43.699 9.737Z"></path><path stroke="#78AA43" stroke-miterlimit="10" d="M338.047 468.714c14.756-9.378 19.116-28.943 9.737-43.699-9.378-14.756-28.942-19.116-43.699-9.737-14.756 9.378-19.115 28.942-9.737 43.699 9.378 14.756 28.943 19.115 43.699 9.737Z"></path><path fill="#000" d="M306.768 445.653h-.044a.486.486 0 0 1-.441-.527l1.057-11.811a.488.488 0 0 1 .486-.443h3.632a.484.484 0 0 1 .486.438l.896 8.644a.488.488 0 0 1-.434.534.487.487 0 0 1-.533-.433l-.851-8.209h-2.755l-1.015 11.365a.487.487 0 0 1-.484.442Z"></path><path fill="#000" d="M336.199 456.749h-30.783a.487.487 0 0 1-.486-.486v-10.329a.49.49 0 0 1 .246-.423l10.261-5.815a.493.493 0 0 1 .485.002.49.49 0 0 1 .241.42v4.981l9.536-5.403a.49.49 0 0 1 .484.002.49.49 0 0 1 .241.42v4.981l9.536-5.403a.49.49 0 0 1 .484.002.487.487 0 0 1 .242.42v16.145a.488.488 0 0 1-.487.486Zm-30.297-.972h29.811v-14.824l-9.535 5.403a.493.493 0 0 1-.485-.002.492.492 0 0 1-.241-.42v-4.981l-9.535 5.403a.493.493 0 0 1-.485-.002.492.492 0 0 1-.241-.42v-4.981l-9.289 5.263v9.561Z"></path><path fill="#000" d="M332.123 453.128h-4.074a.488.488 0 0 1-.487-.486v-2.717a.49.49 0 0 1 .487-.486h4.074a.487.487 0 0 1 .486.486v2.717a.479.479 0 0 1-.142.344.496.496 0 0 1-.344.142Zm-3.589-.973h3.103v-1.744h-3.102l-.001 1.744ZM324.655 453.128h-4.075a.488.488 0 0 1-.486-.486v-2.717a.488.488 0 0 1 .486-.486h4.075a.484.484 0 0 1 .486.486v2.717a.485.485 0 0 1-.486.486Zm-3.589-.973h3.102v-1.744h-3.102v1.744ZM317.185 453.128h-4.074a.49.49 0 0 1-.486-.486v-2.717a.488.488 0 0 1 .486-.486h4.074a.487.487 0 0 1 .487.486v2.717a.485.485 0 0 1-.487.486Zm-3.588-.973h3.102v-1.744h-3.102v1.744Z"></path><circle cx="313.028" cy="428.581" r="2.973" stroke="#000" stroke-width=".8" transform="rotate(28.971 313.028 428.581)"></circle><path fill="#FCFCFC" d="M174.976 465.273c12.724-11.991 13.32-32.026 1.329-44.75-11.99-12.725-32.025-13.32-44.75-1.33-12.724 11.99-13.319 32.026-1.329 44.75 11.99 12.725 32.025 13.32 44.75 1.33Z"></path><path stroke="#78AA43" stroke-miterlimit="10" d="M174.976 465.273c12.724-11.991 13.32-32.026 1.329-44.75-11.99-12.725-32.025-13.32-44.75-1.33-12.724 11.99-13.319 32.026-1.329 44.75 11.99 12.725 32.025 13.32 44.75 1.33Z"></path><g fill="#000" clip-path="url(#e)"><path d="m162.491 430.112.047.002a.552.552 0 0 0 .081-.006 1.304 1.304 0 0 1 1.276 1.301.583.583 0 1 0 1.165 0 2.47 2.47 0 0 0-1.939-2.41v-.56a.583.583 0 1 0-1.166 0v.586a2.47 2.47 0 0 0 .638 4.852 1.302 1.302 0 1 1-1.302 1.302.583.583 0 1 0-1.166 0 2.473 2.473 0 0 0 1.83 2.384v.638a.583.583 0 1 0 1.166 0v-.612a2.466 2.466 0 0 0-.528-4.877 1.303 1.303 0 0 1-.102-2.6Z"></path><path d="M162.629 425.006c-3.585 0-6.645 2.34-7.792 5.473h-14.465c-.321 0-.581.288-.583.609l-.138 20.445h-4.123c-.322 0-.598.233-.598.556v2.594a4.578 4.578 0 0 0 4.371 4.56v.013h17.995v-.017c.145.005.205.017.298.017h.012a4.578 4.578 0 0 0 4.571-4.578V441.56c.146.008.3.012.451.012 4.562 0 8.275-3.72 8.275-8.283 0-4.563-3.711-8.283-8.274-8.283Zm-23.106 33.084h-.004a3.43 3.43 0 0 1-3.424-3.413v-1.978h16.902v1.97a4.575 4.575 0 0 0 1.35 3.24c.061.061.137.108.201.181h-15.025Zm21.488-3.413a3.412 3.412 0 0 1-3.405 3.413h-.011a3.437 3.437 0 0 1-3.432-3.42v-2.581a.537.537 0 0 0-.556-.556h-12.79l.134-19.889h13.563a8.218 8.218 0 0 0 .544 4.954h-5.505a.583.583 0 1 0 0 1.166h6.137a8.224 8.224 0 0 0 5.321 3.65v13.263Zm1.618-14.27a7.11 7.11 0 1 1 7.109-7.11 7.117 7.117 0 0 1-7.109 7.11Z"></path><path d="M145.811 440.477c-1.029 0-1.866.81-1.866 1.806s.837 1.807 1.866 1.807c1.029 0 1.865-.811 1.865-1.807 0-.996-.836-1.806-1.865-1.806Zm0 2.447c-.386 0-.7-.288-.7-.641 0-.353.314-.64.7-.64.386 0 .7.287.7.64 0 .353-.314.641-.7.641ZM148.969 442.281c0 .321.26.582.583.582h7.77a.583.583 0 1 0 0-1.165h-7.77a.582.582 0 0 0-.583.583ZM145.811 435.411c-1.029 0-1.866.81-1.866 1.806s.837 1.806 1.866 1.806c1.029 0 1.865-.81 1.865-1.806s-.836-1.806-1.865-1.806Zm0 2.447c-.386 0-.7-.288-.7-.641 0-.353.314-.641.7-.641.386 0 .7.288.7.641 0 .353-.314.641-.7.641ZM145.811 445.543c-1.029 0-1.866.81-1.866 1.806s.837 1.806 1.866 1.806c1.029 0 1.865-.81 1.865-1.806s-.836-1.806-1.865-1.806Zm0 2.447c-.386 0-.7-.287-.7-.641 0-.353.314-.64.7-.64.386 0 .7.287.7.64 0 .353-.314.641-.7.641ZM157.322 446.798h-7.77a.582.582 0 1 0 0 1.166h7.77a.583.583 0 1 0 0-1.166Z"></path></g><path fill="#fff" d="M55.153 343.857c12.363-12.363 12.363-32.407 0-44.769-12.362-12.363-32.406-12.363-44.769 0-12.362 12.362-12.362 32.406 0 44.769 12.363 12.362 32.407 12.362 44.77 0Z"></path><path stroke="#78AA43" stroke-miterlimit="10" d="M55.153 343.857c12.363-12.363 12.363-32.407 0-44.769-12.362-12.363-32.406-12.363-44.769 0-12.362 12.362-12.362 32.406 0 44.769 12.363 12.362 32.407 12.362 44.77 0Z"></path><path fill="#fff" d="M63.252 162.747c4.977-16.76-4.574-34.381-21.334-39.359-16.76-4.977-34.38 4.574-39.358 21.334-4.978 16.759 4.573 34.381 21.333 39.359 16.76 4.977 34.381-4.574 39.359-21.334Z"></path><path stroke="#78AA43" stroke-miterlimit="10" d="M63.252 162.747c4.977-16.76-4.574-34.381-21.334-39.359-16.76-4.977-34.38 4.574-39.358 21.334-4.978 16.759 4.573 34.381 21.333 39.359 16.76 4.977 34.381-4.574 39.359-21.334Z"></path><g clip-path="url(#f)"><path fill="#000" d="M48.633 142.599c-.007-.02-.017-.036-.026-.054a.542.542 0 0 0-.077-.115c-.014-.016-.027-.031-.042-.045a.534.534 0 0 0-.13-.087c-.012-.006-.021-.015-.034-.02l-.008-.005-15.109-5.876a.567.567 0 0 0-.405 0l-15.11 5.876-.007.005c-.013.005-.023.014-.035.02a.538.538 0 0 0-.13.087c-.015.014-.027.029-.041.045a.542.542 0 0 0-.077.115c-.01.018-.02.034-.027.053a.562.562 0 0 0-.04.197v20.704l.003.009c0 .045.015.088.026.132.008.027.008.056.019.081.013.03.036.054.054.081.022.032.039.068.066.095.018.017.042.027.061.042.04.029.076.059.122.078l.007.004 15.109 5.876a.566.566 0 0 0 .405 0l15.11-5.876.006-.004c.045-.019.083-.049.122-.078.02-.015.043-.025.06-.042.029-.027.046-.063.067-.096.018-.027.041-.05.054-.08.011-.025.012-.055.019-.082.011-.044.025-.086.026-.131l.002-.009v-20.704a.555.555 0 0 0-.04-.196Zm-15.629-5.08 13.565 5.276-6.01 2.337-13.565-5.275 6.01-2.338Zm-.56 31.038-13.989-5.44v-19.504l13.99 5.44v19.504Zm.56-20.487-13.565-5.275 6.01-2.338 13.566 5.276-6.01 2.337Zm14.55 15.047-13.99 5.44v-19.504l13.99-5.44v19.504Z"></path></g><path fill="#708CBA" d="M155.589 64.593c17.45-1.072 30.727-16.088 29.655-33.538C184.172 13.605 169.156.327 151.706 1.4c-17.45 1.072-30.727 16.087-29.655 33.537 1.072 17.45 16.087 30.728 33.538 29.656Z"></path><path stroke="#708CBA" stroke-miterlimit="10" d="M155.589 64.593c17.45-1.072 30.727-16.088 29.655-33.538C184.172 13.605 169.156.327 151.706 1.4c-17.45 1.072-30.727 16.087-29.655 33.537 1.072 17.45 16.087 30.728 33.538 29.656Z"></path><path fill="#FCFCFC" d="M155.589 64.593c17.45-1.072 30.727-16.088 29.655-33.538C184.172 13.605 169.156.327 151.706 1.4c-17.45 1.072-30.727 16.087-29.655 33.537 1.072 17.45 16.087 30.728 33.538 29.656Z"></path><path stroke="#78AA43" stroke-miterlimit="10" d="M155.589 64.593c17.45-1.072 30.727-16.088 29.655-33.538C184.172 13.605 169.156.327 151.706 1.4c-17.45 1.072-30.727 16.087-29.655 33.537 1.072 17.45 16.087 30.728 33.538 29.656Z"></path><path fill="#000" d="M145.74 41.028a.6.6 0 0 0-.599.6v3.597a.601.601 0 0 0 .599.6h3.598a.597.597 0 0 0 .599-.6v-3.597a.598.598 0 0 0-.599-.6h-3.598Zm.6 1.2h2.398v2.398h-2.398v-2.399ZM157.732 18.245a.6.6 0 0 0 0 1.2h3.598c1.007 0 1.798.791 1.798 1.798v9.506a.602.602 0 0 0 .829.554.603.603 0 0 0 .371-.554v-9.506a3.005 3.005 0 0 0-2.998-2.998h-3.598Z"></path><path fill="#000" d="M144.545 18.245a3.004 3.004 0 0 0-2.998 2.998v25.181a3.004 3.004 0 0 0 2.998 2.998h16.787a3.004 3.004 0 0 0 2.998-2.998v-8.48a.604.604 0 0 0-.37-.554.602.602 0 0 0-.829.554v8.48a1.782 1.782 0 0 1-1.799 1.8h-16.787a1.782 1.782 0 0 1-1.799-1.8V21.243c0-1.007.792-1.799 1.799-1.799h3.597a.594.594 0 0 0 .424-.175.591.591 0 0 0 .176-.424.603.603 0 0 0-.6-.6h-3.597Z"></path><path fill="#000" d="M148.139 17.046a.6.6 0 0 0-.6.6v1.199h1.199v-.6h8.394v.6h1.199v-1.2a.6.6 0 0 0-.599-.6h-9.593Z"></path><path fill="#000" d="M147.539 18.845v1.199a.598.598 0 0 0 .6.6h9.593a.6.6 0 0 0 .599-.6v-1.2h-1.199v.6h-8.394v-.6h-1.199ZM149.337 23.041a.596.596 0 0 0-.423.176l-1.975 1.975-.775-.776a.6.6 0 1 0-.848.848l1.199 1.2a.6.6 0 0 0 .848 0l2.398-2.399a.598.598 0 0 0-.424-1.024ZM151.732 24.24a.6.6 0 0 0 0 1.2h8.394a.603.603 0 0 0 .554-.37.602.602 0 0 0-.13-.654.61.61 0 0 0-.424-.175h-8.394ZM149.337 29.037a.596.596 0 0 0-.423.176l-1.975 1.974-.775-.775a.6.6 0 1 0-.848.848l1.199 1.199a.6.6 0 0 0 .848 0l2.398-2.398a.598.598 0 0 0-.424-1.024ZM151.732 30.236a.6.6 0 0 0 0 1.2h8.394a.603.603 0 0 0 .554-.37.602.602 0 0 0-.13-.654.61.61 0 0 0-.424-.176h-8.394ZM151.732 42.227a.6.6 0 0 0 0 1.2h4.797a.592.592 0 0 0 .424-.176.608.608 0 0 0 .175-.424.601.601 0 0 0-.37-.554.592.592 0 0 0-.229-.046h-4.797ZM149.337 35.033a.596.596 0 0 0-.423.175l-1.975 1.975-.775-.776a.6.6 0 1 0-.848.848l1.199 1.2a.6.6 0 0 0 .848 0l2.398-2.399a.598.598 0 0 0-.424-1.023ZM151.732 36.232a.6.6 0 0 0 0 1.2h8.394a.603.603 0 0 0 .554-.371.602.602 0 0 0-.13-.654.61.61 0 0 0-.424-.175h-8.394Z"></path><path fill="#000" d="M166.451 25.182a.606.606 0 0 0-.366.279l-10.192 17.654a.594.594 0 0 0 .22.82l3.115 1.798a.601.601 0 0 0 .82-.22l10.192-17.654a.603.603 0 0 0 .06-.456.594.594 0 0 0-.28-.364l-3.115-1.799a.599.599 0 0 0-.454-.058Zm.372 1.398 2.078 1.2-9.593 16.614-2.078-1.2 9.593-16.614Z"></path><path fill="#000" d="m165.709 27.318-.6 1.04 3.115 1.798.6-1.04-3.115-1.798ZM160.118 45.175a.614.614 0 0 0-.059-.306.504.504 0 0 0-.198-.213l-3.117-1.8a.5.5 0 0 0-.285-.064.606.606 0 0 0-.294.102.713.713 0 0 0-.226.242.71.71 0 0 0-.096.317l-.241 4.015a.614.614 0 0 0 .059.305.498.498 0 0 0 .483.279.608.608 0 0 0 .294-.102l3.357-2.215a.724.724 0 0 0 .323-.56Zm-1.738.113-1.554 1.026.11-1.86 1.444.834Z"></path><path stroke="#78AA43" stroke-miterlimit="10" d="m165.992 62.133 5.276 15.11M307.982 61.894l-8.513 16.068M412.777 166.337l-16.308 5.396M411.094 312.869l-15.828-4.436M309.889 411.916l-5.756-14.989M166.836 413.715l7.554-14.989M63.117 312.87l16.308-5.396M60.242 170.414l16.308 8.274"></path><path fill="#000" d="M278.179 98.52c.096-.33.056-.634-.122-.913-.175-.278-.461-.5-.858-.663a1.993 1.993 0 0 0-.771-.171 1.152 1.152 0 0 0-.6.153.9.9 0 0 0-.367.428.806.806 0 0 0-.061.444c.025.143.083.28.173.41.091.127.2.248.327.363.128.115.26.221.396.32l.622.46c.252.18.484.38.696.596.214.218.388.454.523.707.138.254.217.525.239.813.022.288-.033.592-.166.912a2.166 2.166 0 0 1-.805 1.007c-.357.236-.783.36-1.278.372-.492.011-1.034-.106-1.626-.351-.575-.238-1.038-.533-1.388-.887a2.416 2.416 0 0 1-.666-1.188c-.095-.439-.05-.909.133-1.407l1.318.544a1.213 1.213 0 0 0-.027.741c.068.229.197.432.386.608.192.178.427.325.706.44.291.121.564.183.819.187.258.002.482-.049.672-.154a.962.962 0 0 0 .421-.476.761.761 0 0 0 .028-.547 1.35 1.35 0 0 0-.335-.51 4.832 4.832 0 0 0-.597-.518l-.752-.564c-.544-.408-.927-.844-1.149-1.308-.219-.466-.22-.963-.001-1.492.181-.436.456-.769.827-.999a2.532 2.532 0 0 1 1.286-.36c.485-.013.986.087 1.503.3.525.218.947.5 1.266.845.322.345.53.725.623 1.141.094.414.058.83-.107 1.25l-1.288-.533ZM279.376 105.292l-1.429-.591 5.659-6.317 1.653.684-.45 8.47-1.43-.591.456-6.693-.058-.024-4.401 5.062Zm1.246-2.879 3.898 1.612-.445 1.075-3.898-1.612.445-1.075ZM285.783 107.941l3.056-7.393 1.34.554-2.593 6.27 3.256 1.346-.464 1.123-4.595-1.9ZM291.54 110.321l3.057-7.392 4.808 1.988-.464 1.122-3.469-1.434-.83 2.007 3.22 1.331-.464 1.123-3.22-1.331-.834 2.018 3.497 1.446-.464 1.122-4.837-2ZM303.949 109.175a1.066 1.066 0 0 0-.122-.912c-.175-.278-.461-.5-.858-.664a2.016 2.016 0 0 0-.771-.171 1.152 1.152 0 0 0-.6.154.898.898 0 0 0-.367.427.806.806 0 0 0-.061.444c.026.143.083.28.173.41.091.128.2.249.327.363.128.115.26.222.396.321l.622.459c.252.181.484.38.696.597.214.218.389.454.523.707.138.254.217.525.239.813.022.288-.033.592-.166.912a2.166 2.166 0 0 1-.805 1.007c-.357.235-.783.359-1.278.372-.492.01-1.034-.107-1.626-.351-.575-.238-1.038-.534-1.388-.887a2.414 2.414 0 0 1-.666-1.189c-.095-.439-.05-.908.134-1.407l1.317.545a1.213 1.213 0 0 0-.027.741c.069.229.198.431.387.608.191.178.426.324.705.44.292.12.565.182.819.186a1.33 1.33 0 0 0 .672-.153.962.962 0 0 0 .422-.477.764.764 0 0 0 .027-.546 1.342 1.342 0 0 0-.334-.511 4.922 4.922 0 0 0-.598-.517l-.751-.565c-.545-.408-.928-.844-1.15-1.308-.219-.465-.219-.963 0-1.492a2.06 2.06 0 0 1 .826-.998 2.527 2.527 0 0 1 1.286-.36c.485-.014.986.086 1.504.3.524.217.946.499 1.265.845.323.344.53.725.623 1.141.094.413.058.83-.107 1.249l-1.288-.533ZM148.547 359.272l3.057-7.393 2.772 1.147c.568.235 1.001.537 1.298.908.3.372.472.784.516 1.237.048.45-.026.91-.22 1.38-.196.474-.47.854-.822 1.139a2.315 2.315 0 0 1-1.244.505c-.476.048-1-.046-1.57-.282l-1.837-.76.455-1.101 1.657.685c.332.138.628.192.887.165.26-.028.482-.123.666-.283.188-.159.335-.37.444-.632.108-.263.152-.515.131-.758a1.14 1.14 0 0 0-.28-.661c-.165-.201-.415-.37-.749-.508l-1.228-.508-2.594 6.274-1.339-.554ZM162.806 356.511l1.339.554-1.997 4.83c-.219.529-.537.943-.953 1.242a2.747 2.747 0 0 1-1.437.509c-.542.038-1.114-.068-1.716-.317-.604-.249-1.085-.579-1.442-.989a2.735 2.735 0 0 1-.657-1.375c-.082-.504-.014-1.021.205-1.551l1.997-4.83 1.34.554-1.951 4.718c-.127.308-.174.61-.138.907.037.297.152.566.343.805.192.237.458.426.797.567.339.14.661.194.965.162.307-.034.577-.143.811-.328.235-.185.416-.432.543-.74l1.951-4.718ZM162.544 365.06l3.057-7.393 2.772 1.146c.568.235 1.003.531 1.307.887.306.358.484.755.534 1.193.053.437-.018.891-.213 1.362-.196.474-.467.844-.813 1.109a2.167 2.167 0 0 1-1.217.44c-.468.026-.986-.078-1.554-.313l-1.974-.816.46-1.112 1.794.742c.332.137.623.204.872.2a1.05 1.05 0 0 0 .638-.214c.178-.138.322-.338.43-.6.108-.262.149-.507.122-.736a1.069 1.069 0 0 0-.296-.621c-.171-.186-.424-.349-.759-.487l-1.227-.507-2.594 6.273-1.339-.553Zm5.204-1.771.445 4.107-1.494-.618-.413-4.094 1.462.605ZM177.508 365.511l-1.35-.558c.053-.237.063-.463.031-.676a1.702 1.702 0 0 0-.62-1.089 2.212 2.212 0 0 0-.592-.355 2.08 2.08 0 0 0-1.194-.139c-.393.072-.758.265-1.094.58-.335.312-.617.746-.847 1.302-.234.566-.343 1.078-.327 1.538.018.459.141.851.368 1.176.229.323.544.567.944.732.221.092.44.148.656.17.22.021.431.005.633-.047a1.748 1.748 0 0 0 1.032-.748l1.347.565a3.152 3.152 0 0 1-.738.854 3.146 3.146 0 0 1-2.163.703 3.816 3.816 0 0 1-1.283-.302c-.649-.269-1.167-.659-1.553-1.171-.386-.512-.608-1.112-.667-1.801-.058-.69.076-1.432.405-2.226.329-.796.759-1.416 1.289-1.859.53-.446 1.113-.713 1.748-.803.634-.09 1.274-.002 1.919.265.411.17.77.386 1.076.648.306.262.551.562.735.9.186.336.301.702.345 1.098.049.394.015.809-.1 1.243ZM176.709 370.917l3.057-7.393 1.339.554-1.294 3.13 3.426 1.416 1.294-3.13 1.343.556-3.057 7.392-1.343-.555 1.299-3.14-3.426-1.417-1.298 3.141-1.34-.554ZM185.223 374.437l-1.429-.591 5.659-6.317 1.653.684-.45 8.47-1.43-.591.456-6.693-.058-.024-4.401 5.062Zm1.245-2.879 3.899 1.612-.445 1.076-3.898-1.612.444-1.076ZM197.744 373.338c.097-.33.057-.634-.121-.913-.175-.278-.461-.499-.858-.663a1.983 1.983 0 0 0-.771-.171 1.156 1.156 0 0 0-.6.153.9.9 0 0 0-.367.428.806.806 0 0 0-.061.444c.025.143.083.279.173.409.091.128.2.249.327.364.127.114.259.221.396.32l.622.46c.252.18.484.379.696.596.214.218.388.454.523.707.137.254.217.525.239.813.022.288-.034.592-.166.912a2.172 2.172 0 0 1-.805 1.007c-.357.236-.783.36-1.278.372-.492.011-1.034-.106-1.626-.351-.575-.238-1.038-.533-1.388-.887a2.418 2.418 0 0 1-.667-1.188c-.094-.44-.05-.909.134-1.407l1.318.544a1.213 1.213 0 0 0-.028.741c.069.229.198.432.387.608.192.178.427.325.706.44.291.121.564.183.819.187.258.002.482-.049.672-.154a.962.962 0 0 0 .421-.476.767.767 0 0 0 .028-.547 1.35 1.35 0 0 0-.335-.51 4.75 4.75 0 0 0-.597-.518l-.752-.564c-.544-.408-.927-.844-1.15-1.308-.219-.466-.219-.963 0-1.493.18-.435.456-.768.827-.998a2.544 2.544 0 0 1 1.286-.36c.485-.013.986.087 1.503.301.525.216.947.498 1.266.844.322.345.53.725.623 1.141.094.414.058.83-.107 1.249l-1.289-.532ZM198.112 379.766l3.056-7.392 4.809 1.988-.465 1.122-3.469-1.434-.829 2.007 3.22 1.331-.465 1.123-3.22-1.331-.834 2.018 3.498 1.446-.464 1.122-4.837-2Z"></path><path fill="#020202" d="m102.485 267.573 7.479-2.84.515 1.355-3.166 1.202 1.316 3.466 3.166-1.203.516 1.359-7.48 2.84-.515-1.359 3.177-1.206-1.316-3.466-3.177 1.207-.515-1.355ZM114.66 277.1l.515 1.355-4.886 1.856c-.536.203-1.055.255-1.558.156a2.732 2.732 0 0 1-1.355-.697c-.4-.369-.715-.858-.946-1.467-.232-.611-.321-1.187-.268-1.728.056-.542.24-1.016.551-1.421.312-.405.735-.71 1.271-.913l4.886-1.855.515 1.354-4.773 1.813a1.78 1.78 0 0 0-.755.521 1.59 1.59 0 0 0-.352.802 1.97 1.97 0 0 0 .134.968c.13.344.311.615.543.814.235.2.5.322.795.366.295.044.599.007.91-.111l4.773-1.813ZM115.734 279.928l.63 1.658-4.577 4.278.034.088 6.262.162.63 1.658-7.479 2.84-.494-1.3 5.138-1.951-.026-.069-5.901-.125-.369-.971 4.342-4.014-.026-.069-5.149 1.955-.494-1.3 7.479-2.84ZM112.159 293.048l-.55-1.446 8.479-.207.636 1.673-6.478 5.476-.55-1.446 5.187-4.255-.022-.059-6.702.264Zm2.95-1.066 1.498 3.944-1.089.413-1.497-3.944 1.088-.413ZM124.433 302.836l-7.48 2.84-.457-1.206 3.756-5.458-.023-.062-5.095 1.934-.514-1.355 7.479-2.84.46 1.213-3.761 5.456.025.066 5.098-1.936.512 1.348ZM84.125 264.086l7.48-2.84 1.064 2.805c.218.574.302 1.094.25 1.56-.05.467-.219.87-.503 1.206-.281.338-.66.598-1.138.779-.48.182-.934.238-1.365.167a2.168 2.168 0 0 1-1.154-.585c-.34-.322-.619-.771-.837-1.346l-.758-1.997 1.124-.427.69 1.815c.127.336.278.593.452.772.176.179.374.285.593.318.222.036.466.003.731-.098.266-.1.472-.239.62-.415.15-.176.233-.39.25-.642.018-.252-.037-.547-.166-.885l-.471-1.242-6.347 2.41-.515-1.355Zm4.856 2.577-2.686 3.138-.574-1.512 2.698-3.105.562 1.479ZM86.665 270.775l7.479-2.84 1.847 4.864-1.136.431-1.332-3.509-2.03.771 1.236 3.257-1.136.432-1.237-3.258-2.041.775 1.344 3.539-1.136.431-1.858-4.893ZM96.003 279.027c.306-.156.5-.393.582-.714.082-.318.047-.678-.105-1.08a1.982 1.982 0 0 0-.404-.678 1.143 1.143 0 0 0-.523-.332.905.905 0 0 0-.563.025.81.81 0 0 0-.365.26 1.04 1.04 0 0 0-.18.407c-.03.154-.044.316-.04.487.003.172.016.341.038.508l.09.768c.042.307.056.613.043.916a3.06 3.06 0 0 1-.156.865c-.09.274-.233.518-.428.731a1.98 1.98 0 0 1-.778.505 2.166 2.166 0 0 1-1.285.103c-.416-.098-.799-.323-1.147-.676-.345-.351-.631-.826-.859-1.425-.22-.582-.322-1.121-.305-1.618.019-.494.155-.928.409-1.3.255-.37.627-.659 1.117-.867l.506 1.333c-.253.118-.44.281-.559.488-.119.207-.178.44-.177.698.001.262.056.533.163.816.112.294.254.536.425.724.175.19.366.318.573.385.208.065.42.058.635-.02a.768.768 0 0 0 .417-.355c.087-.161.134-.359.143-.593a4.86 4.86 0 0 0-.033-.79l-.104-.934c-.075-.676-.02-1.254.165-1.734.189-.479.551-.82 1.087-1.023.44-.167.872-.195 1.293-.082.423.116.804.346 1.144.69.342.344.612.777.811 1.301.202.53.286 1.031.252 1.5-.03.471-.164.883-.404 1.236a2.08 2.08 0 0 1-.983.778l-.495-1.303ZM97.85 288.963c-.806.306-1.553.417-2.243.333-.685-.082-1.279-.324-1.78-.728-.5-.4-.875-.928-1.124-1.583-.248-.655-.32-1.299-.212-1.933a3.49 3.49 0 0 1 .853-1.728c.46-.518 1.093-.929 1.896-1.234.806-.306 1.552-.418 2.238-.336.689.084 1.284.326 1.784.727.501.403.876.932 1.125 1.587.249.654.319 1.298.21 1.93-.107.634-.391 1.21-.852 1.727-.457.519-1.09.932-1.895 1.238Zm-.517-1.362c.567-.216 1.012-.486 1.334-.812.325-.324.528-.68.61-1.067a2.072 2.072 0 0 0-.106-1.193 2.074 2.074 0 0 0-.712-.962c-.318-.236-.707-.368-1.166-.397-.457-.027-.968.067-1.536.282-.567.216-1.013.485-1.339.809-.322.326-.525.683-.608 1.071-.082.388-.045.785.11 1.191.154.407.39.728.708.964.32.235.709.366 1.165.393.46.029.972-.064 1.54-.279ZM103.866 293.538l.515 1.355-4.887 1.856c-.535.203-1.054.255-1.557.157a2.753 2.753 0 0 1-1.355-.697c-.4-.37-.715-.859-.946-1.467-.232-.612-.321-1.188-.268-1.729.056-.542.24-1.016.551-1.421.312-.405.735-.709 1.27-.913l4.887-1.855.514 1.355-4.773 1.812a1.787 1.787 0 0 0-.755.521c-.19.231-.308.498-.351.802a1.97 1.97 0 0 0 .134.969c.13.343.311.614.543.813.234.201.5.323.795.367.295.043.598.006.91-.112l4.773-1.813ZM97.46 299.206l7.48-2.84 1.065 2.805c.218.574.301 1.094.25 1.56-.051.467-.219.87-.503 1.206-.282.338-.661.598-1.138.779-.48.182-.935.238-1.365.167a2.165 2.165 0 0 1-1.154-.585c-.34-.323-.619-.771-.837-1.346l-.759-1.997 1.125-.427.689 1.815c.128.336.279.593.452.772.177.179.374.285.593.318.223.036.467.003.732-.098.265-.1.472-.239.62-.415.15-.176.233-.39.249-.642.018-.252-.037-.547-.165-.886l-.472-1.241-6.347 2.41-.514-1.355Zm4.857 2.577-2.686 3.138-.574-1.512 2.698-3.105.562 1.479ZM107.387 310.415l-.519-1.366c.21-.124.381-.271.514-.442a1.71 1.71 0 0 0 .369-1.197 2.237 2.237 0 0 0-.148-.675 2.075 2.075 0 0 0-.717-.964c-.322-.238-.712-.371-1.172-.4-.457-.03-.966.062-1.529.276-.572.217-1.02.489-1.345.816-.321.328-.522.685-.603 1.073-.078.389-.041.785.113 1.19.085.223.194.422.326.594.136.174.292.317.468.429a1.752 1.752 0 0 0 1.252.239l.511 1.368c-.374.084-.75.1-1.126.048a3.164 3.164 0 0 1-1.077-.348 3.25 3.25 0 0 1-.918-.746 3.807 3.807 0 0 1-.659-1.141c-.25-.657-.32-1.302-.212-1.934.108-.631.393-1.205.855-1.72.462-.515 1.095-.925 1.898-1.23.806-.306 1.552-.418 2.238-.336.688.081 1.282.322 1.782.723.501.4.875.927 1.123 1.579.158.417.246.826.265 1.228.019.403-.031.787-.151 1.153a2.933 2.933 0 0 1-.564 1.003 3.272 3.272 0 0 1-.974.78ZM102.903 313.537l7.479-2.84 1.847 4.865-1.136.431-1.333-3.51-2.03.771 1.237 3.258-1.136.431-1.237-3.257-2.041.775 1.344 3.539-1.136.431-1.858-4.894ZM112.241 321.789c.306-.155.5-.393.581-.714.083-.318.048-.678-.105-1.08a1.996 1.996 0 0 0-.403-.678 1.164 1.164 0 0 0-.523-.332.906.906 0 0 0-.563.026.804.804 0 0 0-.365.26 1.027 1.027 0 0 0-.18.406 2.27 2.27 0 0 0-.041.488c.004.171.017.34.039.508l.091.767c.041.308.055.613.042.916a3.06 3.06 0 0 1-.156.866 2.02 2.02 0 0 1-.428.731 1.99 1.99 0 0 1-.778.504 2.17 2.17 0 0 1-1.286.104c-.416-.099-.798-.324-1.146-.676-.345-.351-.631-.826-.859-1.425-.221-.582-.323-1.121-.305-1.618a2.41 2.41 0 0 1 .409-1.3c.255-.37.627-.659 1.116-.867l.507 1.333c-.254.118-.44.281-.559.487-.119.207-.178.44-.178.699.002.261.056.533.164.815.112.295.253.536.425.725.175.189.366.318.572.384a.96.96 0 0 0 .636-.02.763.763 0 0 0 .417-.355c.087-.161.134-.358.143-.593a4.904 4.904 0 0 0-.033-.79l-.104-.934c-.076-.676-.021-1.254.165-1.734.189-.478.551-.819 1.086-1.022a2.058 2.058 0 0 1 1.294-.082c.423.115.804.345 1.144.69.342.343.612.777.811 1.3.202.531.286 1.031.252 1.501a2.43 2.43 0 0 1-.404 1.235 2.08 2.08 0 0 1-.983.779l-.495-1.304Z"></path><path fill="#000" d="m358.57 163.846 7.469-2.866 1.836 4.785-1.134.435-1.317-3.432-2.028.778 1.191 3.104-1.134.435-1.191-3.104-3.173 1.218-.519-1.353ZM368.867 168.35l-7.469 2.866-.519-1.353 7.469-2.866.519 1.353ZM371.784 175.953l-7.469 2.866-.462-1.204 3.738-5.471-.024-.062-5.088 1.952-.519-1.353 7.469-2.866.465 1.211-3.743 5.469.026.066 5.091-1.954.516 1.346ZM365.249 181.252l-.554-1.444 8.477-.236.641 1.67-6.458 5.499-.554-1.445 5.171-4.272-.022-.059-6.701.287Zm2.946-1.076 1.512 3.939-1.087.417-1.511-3.939 1.086-.417ZM377.556 190.996l-7.469 2.866-.462-1.203 3.737-5.472-.023-.062-5.088 1.952-.519-1.353 7.469-2.865.464 1.211-3.742 5.468.025.066 5.091-1.953.517 1.345ZM378.054 199.831l-.523-1.364c.209-.125.379-.273.512-.444a1.7 1.7 0 0 0 .364-1.198 2.2 2.2 0 0 0-.15-.674 2.074 2.074 0 0 0-.72-.962c-.322-.237-.713-.368-1.173-.396-.457-.028-.966.066-1.528.281-.571.219-1.019.493-1.342.821-.32.329-.52.687-.6 1.075-.076.389-.037.785.118 1.189.085.224.195.422.328.594.136.173.292.315.469.426a1.734 1.734 0 0 0 1.253.235l.516 1.367c-.375.085-.75.102-1.127.051a3.149 3.149 0 0 1-1.998-1.086 3.837 3.837 0 0 1-.663-1.139c-.252-.657-.325-1.301-.218-1.933.106-.632.389-1.206.849-1.723.46-.517 1.091-.929 1.893-1.237.805-.309 1.55-.423 2.236-.343.689.078 1.284.317 1.786.716.501.399.877.924 1.127 1.576.16.415.25.824.27 1.227.021.402-.029.786-.148 1.152a2.933 2.933 0 0 1-.559 1.006 3.315 3.315 0 0 1-.972.783ZM373.581 202.968l7.469-2.865 1.863 4.857-1.134.436-1.344-3.505-2.028.778 1.248 3.253-1.134.435-1.248-3.253-2.039.782 1.356 3.534-1.134.435-1.875-4.887Z"></path><path fill="#020202" d="m89.127 211.779 7.422 2.985-.54 1.344-7.423-2.984.54-1.345ZM92.165 204.223l7.422 2.985-.48 1.196-6.463 1.465-.025.061 5.056 2.033-.54 1.345-7.423-2.985.484-1.203 6.464-1.459.027-.066-5.06-2.034.538-1.338ZM93.153 201.765l6.62.418.03-.076-5.067-4.278.595-1.478 6.37 5.601-.667 1.66-8.474-.372.593-1.475ZM103.146 198.358l-7.422-2.985 1.941-4.827 1.127.453-1.4 3.483 2.015.81 1.3-3.233 1.127.454-1.3 3.232 2.026.815 1.412-3.512 1.127.453-1.953 4.857ZM100.67 183.074l7.422 2.985-.481 1.196-6.462 1.464-.025.062 5.056 2.033-.541 1.345-7.422-2.985.484-1.203 6.464-1.46.026-.065-5.059-2.034.538-1.338ZM102.255 182.389l-1.127-.454 2.381-5.922 1.127.454-.922 2.294 6.295 2.531-.536 1.334-6.296-2.531-.922 2.294ZM110.214 170.061c.8.321 1.425.747 1.875 1.276.448.525.719 1.106.815 1.742.096.634.013 1.275-.248 1.925-.262.65-.647 1.172-1.156 1.565-.51.39-1.11.62-1.798.692-.69.068-1.433-.059-2.231-.379-.799-.322-1.423-.746-1.872-1.271-.449-.529-.722-1.11-.818-1.744-.095-.636-.012-1.279.249-1.929.262-.65.646-1.17 1.154-1.561.509-.393 1.109-.624 1.798-.692.689-.071 1.433.054 2.232.376Zm-.543 1.352c-.563-.227-1.073-.329-1.531-.309-.459.018-.85.142-1.172.371a2.073 2.073 0 0 0-.731.948 2.075 2.075 0 0 0-.129 1.19c.074.389.27.75.588 1.083.316.329.756.607 1.319.834.563.226 1.074.331 1.533.313.457-.021.849-.146 1.174-.374.322-.23.564-.546.727-.95.162-.403.206-.8.132-1.189-.076-.389-.272-.749-.589-1.079-.318-.332-.758-.612-1.321-.838ZM114.437 170.282l-7.423-2.985 1.12-2.783c.229-.57.52-1.009.874-1.316.354-.309.75-.491 1.188-.545.435-.058.89.008 1.364.199.476.191.848.459 1.117.803.267.34.417.744.451 1.213.031.467-.068.985-.297 1.556l-.798 1.982-1.116-.449.724-1.801c.135-.333.198-.625.192-.874a1.05 1.05 0 0 0-.22-.636 1.422 1.422 0 0 0-.604-.424 1.472 1.472 0 0 0-.737-.116c-.23.029-.436.13-.619.303-.184.173-.344.427-.479.763l-.495 1.232 6.298 2.533-.54 1.345Zm-1.822-5.187 4.103-.485-.604 1.501-4.089.452.59-1.468ZM109.363 161.456l.611-1.519 4.014-.495.029-.072-2.554-3.137.611-1.518 3.568 4.571 2.769 1.114-.54 1.341-2.768-1.114-5.74.829ZM154.638 120.641l-3.138-7.358 2.759-1.177c.566-.241 1.085-.338 1.558-.291.476.047.89.212 1.244.498.355.281.632.656.832 1.123.201.472.28.933.238 1.384a2.323 2.323 0 0 1-.511 1.242c-.299.374-.733.682-1.301.924l-1.828.78-.468-1.096 1.649-.703c.331-.141.577-.314.739-.519.162-.205.25-.43.265-.674a1.626 1.626 0 0 0-.142-.759 1.613 1.613 0 0 0-.448-.624 1.15 1.15 0 0 0-.669-.263c-.259-.022-.554.037-.887.179l-1.222.521 2.663 6.245-1.333.568ZM161.15 117.864l-3.139-7.358 1.333-.569 2.662 6.241 3.241-1.382.477 1.117-4.574 1.951ZM168.102 114.899l-1.423.607-.548-8.463 1.646-.702 5.733 6.252-1.423.607-4.46-5.012-.058.025.533 6.686Zm-1.184-2.905 3.881-1.655.456 1.071-3.88 1.655-.457-1.071ZM177.387 102.242l3.139 7.358-1.186.506-5.605-3.533-.061.026 2.138 5.012-1.333.568-3.139-7.358 1.193-.509 5.603 3.539.065-.028-2.139-5.016 1.325-.565ZM184.887 99.043l3.138 7.359-1.186.505-5.604-3.533-.062.026 2.138 5.012-1.333.569-3.138-7.359 1.193-.508 5.603 3.538.064-.027-2.139-5.016 1.326-.566ZM187.672 97.855l3.139 7.359-1.333.568-3.139-7.358 1.333-.569ZM195.163 94.66l3.138 7.359-1.186.506-5.605-3.534-.061.026 2.138 5.013-1.333.568-3.138-7.358 1.193-.51 5.602 3.539.065-.027-2.139-5.016 1.326-.565ZM202.547 94.288a2.075 2.075 0 0 0-.47-.415 1.748 1.748 0 0 0-.544-.24 1.64 1.64 0 0 0-.602-.036c-.211.023-.427.08-.647.175a2.076 2.076 0 0 0-.929.748c-.225.33-.343.727-.356 1.188-.011.458.101.962.336 1.513.237.556.525.99.864 1.3.339.311.708.501 1.105.57.396.066.8.01 1.212-.165.374-.16.667-.37.878-.63.215-.26.34-.555.376-.881a2.053 2.053 0 0 0-.176-1.03l.322-.082-1.998.853-.444-1.043 2.986-1.273.377.884c.268.63.366 1.232.294 1.806a2.982 2.982 0 0 1-.653 1.536c-.364.447-.85.8-1.459 1.06-.678.289-1.338.39-1.98.305a3.437 3.437 0 0 1-1.753-.794c-.526-.444-.954-1.054-1.285-1.83-.254-.594-.396-1.16-.428-1.699a3.75 3.75 0 0 1 .204-1.492 3.3 3.3 0 0 1 .752-1.204 3.702 3.702 0 0 1 1.227-.83 3.816 3.816 0 0 1 1.215-.305 3.28 3.28 0 0 1 1.152.103 2.966 2.966 0 0 1 1.782 1.33l-1.358.578Z"></path><path fill="#000" d="m366.462 295.726-.555 1.351a1.816 1.816 0 0 0-.677-.028 1.717 1.717 0 0 0-1.087.621c-.143.17-.261.368-.354.594a2.08 2.08 0 0 0-.136 1.194c.073.393.267.757.582 1.092.313.335.748.616 1.305.845.566.232 1.079.34 1.539.324.459-.02.85-.144 1.174-.371.323-.231.566-.546.731-.946.091-.221.147-.44.168-.657.02-.22.004-.43-.048-.632a1.735 1.735 0 0 0-.751-1.031l.562-1.348c.331.195.616.44.855.736.241.292.423.622.548.989.123.366.177.757.161 1.172a3.838 3.838 0 0 1-.299 1.284c-.268.65-.657 1.169-1.168 1.556-.511.387-1.111.61-1.8.671-.689.06-1.431-.073-2.226-.4-.797-.327-1.418-.755-1.863-1.284-.446-.53-.715-1.112-.807-1.747-.091-.634-.004-1.274.261-1.919.169-.412.385-.772.646-1.078.261-.307.56-.553.898-.738a2.934 2.934 0 0 1 1.097-.347 3.283 3.283 0 0 1 1.244.097ZM371.87 296.513l-7.4-3.04 1.14-2.775c.233-.569.528-1.005.884-1.309a2.186 2.186 0 0 1 1.191-.537c.437-.054.891.015 1.363.209.475.195.845.466 1.111.811.265.343.412.748.442 1.217.028.467-.075.985-.309 1.554l-.812 1.976-1.113-.457.738-1.796c.137-.332.203-.623.198-.873a1.046 1.046 0 0 0-.215-.637 1.421 1.421 0 0 0-.601-.429 1.473 1.473 0 0 0-.736-.121c-.23.027-.437.126-.621.299-.186.171-.347.424-.485.759l-.505 1.228 6.28 2.58-.55 1.341Zm-1.783-5.201 4.106-.454-.615 1.496-4.092.422.601-1.464ZM367.188 286.855l.674-1.64 6.265.006.035-.087-4.459-4.4.674-1.64 7.4 3.04-.529 1.286-5.084-2.088-.028.068 4.222 4.125-.395.961-5.913-.039-.028.069 5.095 2.093-.529 1.286-7.4-3.04Z"></path><path fill="#020202" d="m249.453 384.491 1.486-.626 4.036 4.018.079-.033-.057-5.695 1.485-.626 2.825 6.702-1.165.491-1.941-4.605-.062.027.08 5.365-.87.367-3.789-3.814-.062.026 1.945 4.614-1.165.491-2.825-6.702ZM261.49 387.311l-1.296.546-.466-7.696 1.499-.632 5.188 5.706-1.296.546-4.036-4.573-.052.022.459 6.081Zm-1.065-2.646 3.534-1.49.411.976-3.534 1.489-.411-.975ZM269.98 375.84l2.825 6.702-1.08.455-5.082-3.234-.056.023 1.924 4.565-1.214.512-2.825-6.702 1.087-.458 5.08 3.239.059-.025-1.926-4.568 1.208-.509ZM275.527 373.501l1.214-.511 1.846 4.378c.202.48.267.95.193 1.41a2.49 2.49 0 0 1-.589 1.254c-.322.375-.756.677-1.301.907-.548.231-1.069.331-1.562.3a2.491 2.491 0 0 1-1.309-.454c-.378-.27-.669-.644-.871-1.124l-1.845-4.379 1.214-.512 1.802 4.277c.118.28.284.503.498.669.217.166.463.264.74.293.277.028.568-.023.876-.153.308-.13.548-.303.721-.52a1.41 1.41 0 0 0 .307-.734 1.62 1.62 0 0 0-.131-.824l-1.803-4.277ZM280.886 379.135l-2.825-6.701 4.293-1.81.429 1.018-3.079 1.298.767 1.819 2.785-1.174.429 1.018-2.785 1.174 1.2 2.847-1.214.511ZM286.309 376.85l-1.296.546-.465-7.696 1.498-.632 5.188 5.706-1.296.546-4.035-4.573-.053.022.459 6.081Zm-1.065-2.646 3.534-1.49.411.976-3.534 1.489-.411-.975ZM295.666 367.676l-1.223.516a1.657 1.657 0 0 0-.418-.452 1.543 1.543 0 0 0-1.1-.296c-.201.018-.403.07-.609.157a1.877 1.877 0 0 0-.852.683c-.205.299-.314.658-.325 1.077-.012.416.088.876.301 1.38.216.513.477.911.785 1.195.308.281.64.452.995.513.355.058.714.011 1.077-.141.2-.085.377-.19.529-.316.154-.129.279-.276.374-.439a1.572 1.572 0 0 0 .176-1.146l1.227-.509c.088.338.115.679.08 1.022a2.848 2.848 0 0 1-.281.989 2.967 2.967 0 0 1-.647.859 3.467 3.467 0 0 1-1.015.636c-.59.248-1.173.334-1.75.256a3.095 3.095 0 0 1-1.591-.721c-.483-.402-.877-.964-1.18-1.684-.304-.722-.43-1.396-.378-2.021a3.126 3.126 0 0 1 .598-1.644 3.304 3.304 0 0 1 1.399-1.071 3.611 3.611 0 0 1 1.106-.281c.365-.031.716.002 1.052.1.336.095.646.254.93.478.286.222.533.508.74.86ZM295.96 366.088l-.429-1.018 5.347-2.253.429 1.017-2.072.873 2.396 5.685-1.204.507-2.396-5.684-2.071.873ZM306.133 360.602l1.214-.512 1.846 4.378c.202.48.266.95.193 1.41a2.49 2.49 0 0 1-.589 1.254c-.322.375-.756.677-1.302.907-.547.231-1.068.331-1.561.3a2.488 2.488 0 0 1-1.309-.454c-.379-.27-.669-.644-.871-1.124l-1.846-4.379 1.214-.511 1.803 4.277c.118.279.284.502.498.668.216.166.463.264.74.293a1.78 1.78 0 0 0 .876-.153c.307-.129.548-.303.721-.52.174-.22.277-.464.307-.734.03-.27-.014-.544-.131-.823l-1.803-4.277ZM311.491 366.236l-2.824-6.702 2.513-1.06c.515-.217.984-.309 1.409-.277.426.03.797.17 1.112.417.316.244.565.58.745 1.008.181.43.247.841.197 1.235-.049.39-.214.746-.494 1.068-.282.319-.68.587-1.195.804l-1.79.754-.425-1.008 1.626-.685c.301-.127.53-.272.688-.436a.957.957 0 0 0 .269-.549 1.299 1.299 0 0 0-.113-.662 1.34 1.34 0 0 0-.397-.549.969.969 0 0 0-.592-.205c-.229-.009-.496.051-.799.178l-1.113.469 2.397 5.688-1.214.512Zm2.183-4.496 2.939 2.337-1.355.571-2.91-2.35 1.326-.558ZM315.874 356.496l2.825 6.702-1.214.511-2.825-6.701 1.214-.512ZM322.696 353.62l2.825 6.702-1.08.455-5.082-3.234-.056.024 1.925 4.565-1.214.512-2.825-6.702 1.086-.458 5.08 3.238.059-.024-1.925-4.569 1.207-.509ZM329.411 353.311a1.896 1.896 0 0 0-.426-.38 1.588 1.588 0 0 0-.493-.219 1.486 1.486 0 0 0-.547-.036 2.028 2.028 0 0 0-.59.156c-.36.152-.642.377-.847.677-.205.3-.315.659-.328 1.079-.012.416.088.875.299 1.377.213.506.474.901.781 1.185.307.284.641.458 1.002.522.36.061.728.013 1.103-.145.34-.144.607-.333.801-.569.195-.237.31-.503.344-.8.034-.3-.018-.612-.155-.937l.293-.073-1.82.767-.4-.949 2.719-1.146.34.805c.242.573.329 1.121.261 1.643a2.717 2.717 0 0 1-.6 1.393c-.333.405-.776.725-1.33.958-.618.26-1.218.35-1.802.27a3.113 3.113 0 0 1-1.59-.729c-.477-.405-.864-.961-1.162-1.668a4.647 4.647 0 0 1-.382-1.546 3.408 3.408 0 0 1 .191-1.356 3 3 0 0 1 .689-1.092 3.374 3.374 0 0 1 1.118-.749 3.475 3.475 0 0 1 1.106-.273c.366-.029.715.004 1.047.098a2.715 2.715 0 0 1 1.615 1.215l-1.237.522Z"></path><path fill="#78AA43" d="M183.995 237.93v-46.546h30.273v7.068h-21.841v12.637H212.7v7.068h-20.273v12.705h22.023v7.068h-30.455Zm38.875 0v-46.546h17.455c3.575 0 6.575.621 9 1.864 2.439 1.242 4.28 2.985 5.522 5.227 1.258 2.227 1.887 4.826 1.887 7.796 0 2.984-.637 5.575-1.909 7.772-1.258 2.182-3.114 3.872-5.569 5.069-2.454 1.181-5.469 1.772-9.045 1.772h-12.432v-7h11.296c2.09 0 3.803-.288 5.136-.863 1.333-.591 2.318-1.447 2.954-2.569.652-1.136.978-2.53.978-4.181 0-1.652-.326-3.061-.978-4.228-.651-1.181-1.644-2.075-2.977-2.681-1.333-.622-3.053-.932-5.159-.932h-7.727v39.5h-8.432Zm24.045-21.091 11.523 21.091h-9.409l-11.318-21.091h9.204Zm17.58 21.091v-46.546h17.455c3.575 0 6.575.667 9 2 2.439 1.334 4.28 3.167 5.522 5.5 1.258 2.318 1.887 4.955 1.887 7.909 0 2.985-.629 5.637-1.887 7.955-1.257 2.318-3.113 4.144-5.568 5.477-2.454 1.318-5.477 1.977-9.068 1.977h-11.568v-6.931H280.7c2.09 0 3.803-.364 5.136-1.091 1.333-.728 2.318-1.728 2.954-3 .652-1.273.978-2.735.978-4.387 0-1.651-.326-3.106-.978-4.363-.636-1.258-1.628-2.235-2.977-2.932-1.333-.712-3.053-1.068-5.159-1.068h-7.727v39.5h-8.432Z"></path><path fill="#000" d="M174.902 272.836v-7.272h4.731v1.104h-3.413v1.975h3.167v1.104h-3.167v1.985h3.441v1.104h-4.759Zm12.551-7.272v7.272h-1.172l-3.427-4.953h-.06v4.953h-1.317v-7.272h1.179l3.423 4.957h.064v-4.957h1.31Zm1.616 1.104v-1.104h5.803v1.104h-2.248v6.168h-1.307v-6.168h-2.248Zm7.421 6.168v-7.272h4.73v1.104h-3.412v1.975h3.167v1.104h-3.167v1.985h3.441v1.104h-4.759Zm6.574 0v-7.272h2.728c.558 0 1.027.097 1.406.291.381.194.669.466.863.817.196.348.295.754.295 1.218 0 .466-.1.871-.299 1.214a1.963 1.963 0 0 1-.87.792c-.383.185-.854.277-1.413.277h-1.942v-1.094h1.764c.327 0 .595-.045.803-.135a.959.959 0 0 0 .462-.401 1.3 1.3 0 0 0 .152-.653c0-.258-.051-.479-.152-.661a.976.976 0 0 0-.466-.419c-.208-.097-.477-.145-.806-.145h-1.207v6.171h-1.318Zm3.758-3.295 1.8 3.295h-1.47l-1.769-3.295h1.439Zm3.246 3.295v-7.272h2.728c.558 0 1.027.104 1.406.312.381.209.669.495.863.86.196.362.295.774.295 1.235 0 .467-.099.881-.295 1.243a2.112 2.112 0 0 1-.87.856c-.384.206-.856.309-1.417.309h-1.808v-1.083h1.63c.327 0 .595-.057.803-.171.208-.113.362-.269.462-.468.101-.199.152-.428.152-.686 0-.258-.051-.485-.152-.681a1.04 1.04 0 0 0-.466-.459c-.208-.111-.477-.166-.806-.166h-1.207v6.171h-1.318Zm6.936 0v-7.272h2.727c.559 0 1.028.097 1.406.291.382.194.669.466.863.817.197.348.295.754.295 1.218 0 .466-.099.871-.298 1.214a1.974 1.974 0 0 1-.87.792c-.384.185-.855.277-1.414.277h-1.942v-1.094h1.765c.327 0 .594-.045.802-.135a.95.95 0 0 0 .462-.401 1.29 1.29 0 0 0 .153-.653c0-.258-.051-.479-.153-.661a.978.978 0 0 0-.465-.419c-.208-.097-.477-.145-.806-.145h-1.208v6.171h-1.317Zm3.757-3.295 1.8 3.295h-1.47l-1.768-3.295h1.438Zm4.564-3.977v7.272h-1.317v-7.272h1.317Zm5.879 1.999a.965.965 0 0 0-.419-.724c-.243-.173-.561-.26-.951-.26a1.81 1.81 0 0 0-.707.125 1.041 1.041 0 0 0-.451.337.825.825 0 0 0-.16.486c0 .152.035.283.103.395a.941.941 0 0 0 .288.284c.121.076.254.139.401.192.147.052.295.095.444.131l.682.17c.274.064.538.151.792.26.255.108.484.246.685.412.204.165.365.365.483.6.118.234.178.509.178.824 0 .426-.109.801-.327 1.125-.218.322-.533.574-.945.757-.409.18-.905.27-1.488.27-.565 0-1.057-.088-1.473-.263a2.189 2.189 0 0 1-.973-.767c-.232-.336-.358-.746-.377-1.229h1.296c.019.253.097.464.235.632.137.168.316.294.536.377.223.082.471.124.746.124.286 0 .537-.043.753-.128.217-.088.388-.208.511-.362a.876.876 0 0 0 .188-.547.692.692 0 0 0-.167-.469 1.214 1.214 0 0 0-.458-.312 4.382 4.382 0 0 0-.682-.228l-.827-.213c-.599-.154-1.073-.387-1.421-.699-.345-.315-.518-.733-.518-1.254 0-.428.116-.804.348-1.126.234-.322.553-.571.955-.749.403-.18.858-.27 1.367-.27.517 0 .969.09 1.357.27.391.178.697.425.92.742.222.315.337.677.344 1.087h-1.268Zm3.042 5.273v-7.272h4.73v1.104h-3.412v1.975h3.167v1.104h-3.167v1.985h3.441v1.104h-4.759Zm9.555 0v-7.272h2.727c.559 0 1.028.097 1.406.291.382.194.669.466.863.817.197.348.295.754.295 1.218 0 .466-.099.871-.298 1.214a1.974 1.974 0 0 1-.87.792c-.384.185-.855.277-1.414.277h-1.942v-1.094h1.765c.326 0 .594-.045.802-.135a.95.95 0 0 0 .462-.401 1.29 1.29 0 0 0 .153-.653c0-.258-.051-.479-.153-.661a.978.978 0 0 0-.465-.419c-.209-.097-.477-.145-.806-.145h-1.208v6.171h-1.317Zm3.757-3.295 1.8 3.295h-1.47l-1.768-3.295h1.438Zm3.247 3.295v-7.272h4.73v1.104h-3.413v1.975h3.168v1.104h-3.168v1.985h3.441v1.104h-4.758Zm10.526-5.273a.965.965 0 0 0-.419-.724c-.244-.173-.561-.26-.951-.26a1.81 1.81 0 0 0-.707.125 1.035 1.035 0 0 0-.451.337.825.825 0 0 0-.16.486c0 .152.034.283.103.395a.941.941 0 0 0 .288.284c.121.076.254.139.401.192.147.052.295.095.444.131l.682.17c.274.064.538.151.792.26.255.108.484.246.685.412.204.165.365.365.483.6.118.234.178.509.178.824 0 .426-.109.801-.327 1.125-.218.322-.533.574-.945.757-.409.18-.905.27-1.488.27-.565 0-1.057-.088-1.473-.263a2.189 2.189 0 0 1-.973-.767c-.232-.336-.358-.746-.377-1.229h1.296c.019.253.097.464.235.632.137.168.316.294.536.377.222.082.471.124.746.124.286 0 .537-.043.753-.128.217-.088.388-.208.511-.362a.876.876 0 0 0 .188-.547.692.692 0 0 0-.167-.469 1.214 1.214 0 0 0-.458-.312 4.382 4.382 0 0 0-.682-.228l-.827-.213c-.599-.154-1.073-.387-1.421-.699-.345-.315-.518-.733-.518-1.254 0-.428.116-.804.348-1.126.234-.322.553-.571.955-.749.403-.18.858-.27 1.367-.27.516 0 .969.09 1.357.27.391.178.697.425.92.742.222.315.337.677.344 1.087h-1.268Zm9.541 1.637c0 .784-.147 1.455-.441 2.014a3.12 3.12 0 0 1-1.193 1.278c-.502.296-1.071.444-1.708.444a3.32 3.32 0 0 1-1.712-.444 3.183 3.183 0 0 1-1.193-1.282c-.291-.559-.437-1.229-.437-2.01 0-.784.146-1.454.437-2.01a3.152 3.152 0 0 1 1.193-1.282 3.32 3.32 0 0 1 1.712-.444c.637 0 1.206.148 1.708.444.504.296.902.723 1.193 1.282.294.556.441 1.226.441 2.01Zm-1.325 0c0-.552-.086-1.017-.259-1.396-.171-.381-.407-.668-.71-.862a1.88 1.88 0 0 0-1.048-.295 1.88 1.88 0 0 0-1.048.295c-.303.194-.54.481-.713.862-.171.379-.256.844-.256 1.396 0 .552.085 1.018.256 1.399.173.379.41.667.713.863.303.194.653.291 1.048.291s.745-.097 1.048-.291c.303-.196.539-.484.71-.863.173-.381.259-.847.259-1.399Zm7.655-3.636h1.317v4.751c0 .521-.123.979-.369 1.374a2.487 2.487 0 0 1-1.03.927c-.443.22-.96.331-1.552.331-.594 0-1.112-.111-1.555-.331a2.487 2.487 0 0 1-1.03-.927c-.244-.395-.366-.853-.366-1.374v-4.751h1.318v4.641c0 .303.066.573.199.81.135.236.324.422.568.557.244.133.532.199.866.199.334 0 .623-.066.867-.199.246-.135.435-.321.568-.557.132-.237.199-.507.199-.81v-4.641Zm3.249 7.272v-7.272h2.727c.559 0 1.028.097 1.407.291.381.194.669.466.863.817.196.348.294.754.294 1.218 0 .466-.099.871-.298 1.214a1.963 1.963 0 0 1-.87.792c-.383.185-.855.277-1.413.277h-1.943v-1.094h1.765c.327 0 .594-.045.803-.135a.952.952 0 0 0 .461-.401 1.29 1.29 0 0 0 .153-.653c0-.258-.051-.479-.153-.661a.969.969 0 0 0-.465-.419c-.208-.097-.477-.145-.806-.145h-1.207v6.171h-1.318Zm3.757-3.295 1.801 3.295h-1.47l-1.769-3.295h1.438Zm9.472-1.523h-1.328a1.67 1.67 0 0 0-.209-.579 1.573 1.573 0 0 0-.38-.434 1.595 1.595 0 0 0-.519-.266 2.04 2.04 0 0 0-.621-.092c-.396 0-.746.099-1.051.298-.306.197-.545.485-.718.867-.173.378-.259.841-.259 1.388 0 .556.086 1.025.259 1.406.175.379.415.666.718.86.305.191.654.287 1.047.287.218 0 .422-.028.611-.085.192-.059.363-.145.515-.259a1.57 1.57 0 0 0 .607-.987l1.328.007c-.049.345-.157.67-.323.973-.163.303-.377.57-.643.802-.265.23-.575.41-.93.54a3.466 3.466 0 0 1-1.183.192c-.639 0-1.209-.148-1.711-.444a3.097 3.097 0 0 1-1.186-1.282c-.289-.559-.434-1.229-.434-2.01 0-.784.146-1.454.437-2.01a3.119 3.119 0 0 1 1.19-1.282 3.291 3.291 0 0 1 1.704-.444c.405 0 .782.057 1.13.171.348.113.658.28.93.5.272.218.496.486.671.803.178.315.294.675.348 1.08Zm1.707 4.818v-7.272h4.73v1.104h-3.413v1.975h3.168v1.104h-3.168v1.985h3.441v1.104h-4.758Zm-83.534 12v-7.272h2.727c.559 0 1.027.104 1.406.312.381.209.669.495.863.86.197.362.295.774.295 1.235 0 .467-.098.881-.295 1.243a2.1 2.1 0 0 1-.87.856c-.384.206-.856.309-1.417.309h-1.807v-1.083h1.63c.326 0 .594-.057.802-.171.208-.113.362-.269.462-.468.102-.199.152-.428.152-.686 0-.258-.05-.485-.152-.681-.1-.197-.255-.35-.465-.459-.209-.111-.477-.166-.807-.166h-1.207v6.171h-1.317Zm6.935 0v-7.272h1.318v6.168h3.203v1.104h-4.521Zm7.372 0h-1.407l2.561-7.272h1.626l2.564 7.272h-1.406l-1.943-5.781h-.057l-1.938 5.781Zm.046-2.851h3.835v1.058h-3.835v-1.058Zm12.733-4.421v7.272h-1.172l-3.427-4.953h-.061v4.953h-1.317v-7.272h1.179l3.423 4.957h.064v-4.957h1.311Zm7.912 0v7.272h-1.172l-3.427-4.953h-.06v4.953h-1.318v-7.272h1.179l3.423 4.957h.064v-4.957h1.311Zm3.253 0v7.272h-1.318v-7.272h1.318Zm7.903 0v7.272h-1.172l-3.427-4.953h-.06v4.953h-1.318v-7.272h1.179l3.424 4.957h.064v-4.957h1.31Zm6.808 2.322a1.915 1.915 0 0 0-.245-.515 1.578 1.578 0 0 0-.37-.394 1.474 1.474 0 0 0-.49-.245 2.036 2.036 0 0 0-.604-.085c-.39 0-.738.098-1.044.295-.305.196-.545.485-.72.866-.173.379-.26.84-.26 1.385 0 .549.087 1.014.26 1.396.172.381.413.671.72.87.308.196.666.294 1.073.294.369 0 .689-.071.959-.213.272-.142.481-.343.628-.603.147-.263.22-.571.22-.924l.299.046h-1.975v-1.029h2.951v.873c0 .623-.132 1.161-.397 1.616-.266.454-.63.805-1.094 1.051-.464.244-.997.366-1.598.366-.67 0-1.258-.15-1.765-.451a3.124 3.124 0 0 1-1.183-1.289c-.281-.559-.422-1.222-.422-1.989 0-.587.083-1.111.248-1.573.168-.462.403-.853.703-1.175a2.988 2.988 0 0 1 1.059-.739 3.36 3.36 0 0 1 1.321-.256c.402 0 .777.059 1.125.178.348.116.657.282.927.497.273.215.496.471.671.767.176.296.29.623.345.98h-1.342Z"></path><g clip-path="url(#g)"><path fill="#000" d="M36.04 316.784a5.965 5.965 0 0 0-2.279-1.429 3.466 3.466 0 0 0 1.505-2.857 3.47 3.47 0 0 0-3.466-3.466 3.47 3.47 0 0 0-3.466 3.466c0 1.184.597 2.231 1.505 2.857a5.965 5.965 0 0 0-2.278 1.429 5.955 5.955 0 0 0-1.756 4.239h.936a5.064 5.064 0 0 1 5.06-5.058 5.064 5.064 0 0 1 5.058 5.058h.937a5.955 5.955 0 0 0-1.756-4.239Zm-4.24-1.756a2.533 2.533 0 0 1-2.53-2.53 2.532 2.532 0 0 1 2.53-2.529 2.532 2.532 0 0 1 2.53 2.529 2.533 2.533 0 0 1-2.53 2.53Z"></path></g><path fill="#121212" d="M26.374 327.655c-3.031-1.389-5.348-3.892-6.523-7.048a12.704 12.704 0 0 1 .302-9.66c1.37-3.073 3.838-5.423 6.95-6.614a12.22 12.22 0 0 1 9.528.306c3.032 1.389 5.35 3.892 6.524 7.048a12.706 12.706 0 0 1-.302 9.66c-1.37 3.074-3.839 5.423-6.951 6.614a12.215 12.215 0 0 1-9.528-.306Zm9.737-21.848a10.976 10.976 0 0 0-8.561-.275c-2.797 1.07-5.015 3.181-6.245 5.943a11.416 11.416 0 0 0-.272 8.68c1.056 2.835 3.138 5.084 5.862 6.332a10.976 10.976 0 0 0 8.56.275c2.797-1.07 5.015-3.181 6.246-5.943a11.417 11.417 0 0 0 .271-8.68c-1.055-2.835-3.137-5.084-5.861-6.332Z"></path><path fill="#000" d="m35.125 327.725 1.191-.456 1.372 3.683-1.191.456-1.372-3.683Z"></path><path fill="#000" d="M39.29 343.657a3.236 3.236 0 0 1-1.692-1.828l-2.711-7.281c-.63-1.69.215-3.584 1.882-4.222 1.667-.638 3.535.218 4.165 1.908l2.71 7.28a3.295 3.295 0 0 1-.078 2.506 3.224 3.224 0 0 1-1.803 1.716 3.164 3.164 0 0 1-2.473-.079Zm-.583-12.054a1.906 1.906 0 0 0-1.48-.048c-1 .382-1.505 1.517-1.128 2.529l2.711 7.28c.183.491.543.88 1.014 1.096.472.216.997.233 1.481.047a1.974 1.974 0 0 0 1.127-2.529l-2.71-7.28a1.948 1.948 0 0 0-1.015-1.095Z"></path><g fill="#000" clip-path="url(#h)"><path d="M334.709 17.127c-2.931 0-5.248 2.353-5.248 5.285a5.23 5.23 0 0 0 5.248 5.249c2.896 0 5.285-2.353 5.285-5.285s-2.353-5.249-5.285-5.249Zm0 9.375a4.125 4.125 0 0 1-4.126-4.126c0-2.28 1.882-4.09 4.126-4.09a4.125 4.125 0 0 1 4.127 4.126c0 2.28-1.846 4.09-4.127 4.09Z"></path><path d="M336.374 23.208c-.036-.108-.036-.18-.108-.29-.037-.072-.073-.18-.145-.253-.073-.072-.109-.145-.181-.217-.073-.072-.145-.145-.254-.181-.072-.072-.181-.109-.253-.145-.109-.036-.181-.108-.29-.145-.108-.036-.217-.072-.289-.108a.275.275 0 0 1-.145-.072c-.036-.037-.109-.037-.145-.073-.036-.036-.108-.036-.145-.072l-.108-.109c-.036-.036-.073-.072-.073-.145-.036-.036-.036-.108-.036-.145v-.18c0-.037.036-.109.036-.145.037-.036.037-.109.073-.145l.108-.109a.28.28 0 0 1 .181-.072c.073-.036.109-.036.181-.036h.218c.072 0 .108 0 .181.036.072 0 .144.036.181.036.036 0 .108.036.144.036.073 0 .109.037.145.037l.181.072.036-.217.073-.58v-.144l-.145-.036c-.036 0-.109-.037-.145-.037-.036 0-.072-.036-.145-.036-.036 0-.108-.036-.181-.036-.072 0-.108-.036-.181-.036h-.036v-.687h-.869V19.696h-.036c-.108.036-.217.073-.325.145-.109.036-.181.109-.254.18-.072.073-.145.146-.217.254-.072.073-.109.181-.145.29l-.108.326c-.037.108-.037.253-.037.361 0 .11 0 .181.037.29.036.109.036.181.108.29.036.072.109.18.145.253.072.072.109.145.181.217a.65.65 0 0 0 .253.181c.073.073.181.109.254.145.108.036.217.109.289.145.109.036.217.072.29.108.036 0 .108.037.145.073.036.036.108.036.144.072.037.036.073.073.109.073l.109.108c.036.036.036.073.072.145 0 .036.036.108.036.18v.182a.275.275 0 0 1-.072.145l-.109.108c-.036.037-.072.073-.145.109-.036.036-.108.036-.144.072-.037 0-.109.036-.181.036h-.471c-.072 0-.145-.036-.181-.036a.514.514 0 0 1-.217-.072c-.072-.036-.145-.036-.217-.073-.036 0-.073-.036-.109-.036-.036 0-.072-.036-.108-.036l-.218-.108-.036.253-.072.651v.109l.108.036c.145-.036.218 0 .326.036a.674.674 0 0 0 .254.073c.072.036.181.036.289.072a.8.8 0 0 0 .29.036h.072v.724h.869v-.76h.036c.109-.036.217-.072.326-.145.108-.036.181-.108.289-.18.073-.073.145-.145.218-.254.072-.072.108-.181.181-.29l.108-.325c.036-.109.036-.218.036-.362 0-.109 0-.181-.036-.29ZM332.173 28.348c-.181-.253-.579-.29-.832-.108l-5.864 4.669-7.565-3.15a.578.578 0 0 0-.543.073l-8.108 5.792a.579.579 0 0 0-.145.796c.109.181.29.253.471.253a.581.581 0 0 0 .325-.108l7.855-5.61 7.601 3.148a.653.653 0 0 0 .58-.072l6.117-4.85c.253-.181.289-.58.108-.833Z"></path><path d="M340.646 48.184h-2.679v-16.76a.571.571 0 0 0-.579-.578h-5.321a.571.571 0 0 0-.579.579v16.759h-1.955V37.216a.571.571 0 0 0-.579-.579h-5.357a.571.571 0 0 0-.579.58v10.967h-1.955V36.348a.572.572 0 0 0-.579-.58h-5.321a.572.572 0 0 0-.579.58v11.836h-1.954V39.75a.572.572 0 0 0-.58-.58h-5.357a.572.572 0 0 0-.579.58v8.434h-2.715a.572.572 0 0 0-.579.579c0 .326.254.58.579.58h37.211a.572.572 0 0 0 .579-.58c.036-.326-.218-.58-.543-.58Zm-29.211 0h-4.163v-7.855h4.163v7.855Zm8.47 0h-4.163V36.927h4.163v11.257Zm8.434 0h-4.163V37.795h4.163v10.389Zm8.47 0h-4.163v-16.18h4.163v16.18Z"></path></g></g><defs><clipPath id="a"><path fill="#fff" d="M0 0h475v475H0z"></path></clipPath><clipPath id="d"><path fill="#fff" d="M423.93 132.761h38.372v38.372H423.93z"></path></clipPath><clipPath id="e"><path fill="#fff" d="M134.93 424.148h35.974v35.974H134.93z"></path></clipPath><clipPath id="f"><path fill="#fff" d="M16.219 136.359h33.575v33.575H16.219z"></path></clipPath><clipPath id="g"><path fill="#fff" d="M25.805 309.032h11.99v11.991h-11.99z"></path></clipPath><clipPath id="h"><path fill="#fff" d="M302.82 14.049h38.372V52.42H302.82z"></path></clipPath><linearGradient id="b" x1="238.048" x2="238.048" y1="424.863" y2="49.306" gradientUnits="userSpaceOnUse"><stop stop-color="#DCE3E6"></stop><stop offset="1" stop-color="#fff"></stop></linearGradient><linearGradient id="c" x1="238.062" x2="238.062" y1="361.156" y2="113.014" gradientUnits="userSpaceOnUse"><stop stop-color="#DBDBDA"></stop><stop offset="1" stop-color="#DBDBDA"></stop></linearGradient></defs></svg> 